PathFileType	4	(X/Y/Z)	./resultDataOpenSim/trcMotMarkerGrf/sub09/qtm-14-03.trc
DataRate	CameraRate	NumFrames	NumMarkers	Units	OrigDataRate	OrigDataStartFrame	OrigNumFrames
250.000000	250.000000	6	24	m	250.000000	244	486
Frame#	Time	L.Toe.Tip			R.Toe.Tip			L.Ankle.Lat			R.Ankle.Lat			L.Ankle.Med			R.Ankle.Med			L.Heel			R.Heel			L.Knee.Lat			R.Knee.Lat			L.Knee.Med			R.Knee.Med			L.Thigh.Upper			R.Thigh.Upper			L.ASIS			R.ASIS			V.Sacral			L.Acromium			R.Acromium			C7			L.Elbow			R.Elbow			L.Wrist.Lat			R.Wrist.Lat
		X1	Y1	Z1	X2	Y2	Z2	X3	Y3	Z3	X4	Y4	Z4	X5	Y5	Z5	X6	Y6	Z6	X7	Y7	Z7	X8	Y8	Z8	X9	Y9	Z9	X10	Y10	Z10	X11	Y11	Z11	X12	Y12	Z12	X13	Y13	Z13	X14	Y14	Z14	X15	Y15	Z15	X16	Y16	Z16	X17	Y17	Z17	X18	Y18	Z18	X19	Y19	Z19	X20	Y20	Z20	X21	Y21	Z21	X22	Y22	Z22	X23	Y23	Z23	X24	Y24	Z24

244	0.972	0.17229616	-0.033660197	0.057399565	0.51146253	0.11194815	0.13598262	0.038405973	0.027984428	-0.010373559	0.36709007	0.13367914	0.15857206	0.052220431	0.049760704	0.086163889	0.38830103	0.16539539	0.064905863	-0.040136613	0.0094313938	0.027921812	0.30031475	0.11112809	0.10571202	0.16103489	0.42705184	-0.065846298	0.51898338	0.55293658	0.19414269	0.15385184	0.4311998	0.05835199	0.51283805	0.54230889	0.069707722	0.22501445	0.84647628	-0.11761296	0.25061517	0.85239712	0.25266469	0.322771	0.92621475	-0.061319421	0.32218714	0.93596878	0.17840248	0.15924228	0.99139006	0.060462122	0.34995037	1.375344	-0.10395126	0.29482869	1.4018242	0.21936122	0.25824903	1.4380455	0.045912608	0.23294296	1.0190071	-0.18644058	0.11355975	1.0908616	0.30072757	0.46571666	0.87798221	-0.20157362	0.21487893	0.84435133	0.36674336
245	0.976	0.17243402	-0.033648719	0.057379763	0.53180926	0.11234753	0.13478214	0.038699281	0.029016735	-0.010113686	0.38660862	0.13000525	0.15719998	0.053111828	0.050717137	0.086437563	0.40716078	0.16243455	0.063580345	-0.039870693	0.011057331	0.028752189	0.32075439	0.10566363	0.10414805	0.16242727	0.42776339	-0.066103288	0.52651085	0.55446956	0.19358644	0.15614916	0.43181686	0.057986241	0.5201343	0.54316627	0.069232	0.22940461	0.84641372	-0.11749155	0.25698607	0.85275178	0.25279448	0.32829002	0.92576007	-0.061664925	0.32848631	0.93591751	0.1780894	0.16535832	0.99123537	0.060690706	0.35644707	1.3751584	-0.10412318	0.3024602	1.4015178	0.21933351	0.26528541	1.437898	0.045983149	0.24050006	1.0182571	-0.18653984	0.1202368	1.091461	0.30081906	0.47495205	0.87981584	-0.20118234	0.21933896	0.84420882	0.36745914
246	0.98	0.17256797	-0.033635994	0.05737314	0.55204383	0.11280538	0.13362345	0.039002883	0.030048906	-0.0098391112	0.40611597	0.12654037	0.15576068	0.054006336	0.051645457	0.086741689	0.42605854	0.15963462	0.062191234	-0.039522626	0.012630624	0.029513713	0.34121223	0.10047481	0.10250888	0.16389879	0.42845142	-0.066319676	0.53397668	0.55586819	0.19308713	0.15873626	0.43236536	0.057594797	0.52737567	0.54381799	0.068795522	0.23389811	0.84630668	-0.11747337	0.26332202	0.85303162	0.2529356	0.33391156	0.92528417	-0.062004555	0.33480408	0.93579356	0.17779811	0.17152485	0.99100927	0.060960113	0.36296098	1.37493	-0.10429831	0.31008093	1.401155	0.21930374	0.27232972	1.4377127	0.046058846	0.24806727	1.0174695	-0.18662429	0.12689278	1.0920171	0.30110081	0.48414289	0.88159471	-0.20076313	0.22376105	0.84397417	0.3681119
247	0.984	0.1726964	-0.033622834	0.057381935	0.57213746	0.11334596	0.1325156	0.039301564	0.031066306	-0.0095087794	0.42560018	0.12330425	0.15426215	0.054915235	0.052553141	0.087060997	0.44497052	0.15700558	0.060759287	-0.039105474	0.014145867	0.030208816	0.36167382	0.095557116	0.10077893	0.16544016	0.42907789	-0.066499791	0.5413882	0.55711125	0.19263115	0.16153345	0.43280565	0.057234954	0.53454238	0.54425565	0.068416525	0.23860809	0.84615569	-0.11753436	0.269635	0.85322588	0.2530928	0.33954567	0.92476349	-0.062355834	0.34113977	0.9355962	0.1775268	0.17763547	0.99078812	0.06110884	0.36949209	1.3746544	-0.10447302	0.31768491	1.4007377	0.21927099	0.27937601	1.437475	0.046140062	0.25563767	1.0166456	-0.18668933	0.13348094	1.0925484	0.30164144	0.49328904	0.88331545	-0.20031646	0.2281442	0.84365269	0.36870361
248	0.988	0.17282248	-0.033610484	0.057403481	0.59204709	0.1140172	0.13147585	0.039572947	0.032056791	-0.0091404352	0.44504429	0.12030538	0.15271304	0.055813111	0.053437019	0.087352985	0.46387109	0.15456421	0.059313538	-0.038642282	0.015625038	0.030863741	0.38213813	0.090911268	0.09894107	0.16706448	0.42962382	-0.06663698	0.54873759	0.55817185	0.19220312	0.16432308	0.43313533	0.057025264	0.54165177	0.54448688	0.06808337	0.24354726	0.84595647	-0.11759303	0.27593857	0.85333616	0.25326816	0.34510597	0.92416855	-0.062738491	0.34749661	0.93532643	0.17727073	0.18368102	0.99059785	0.061087733	0.37604277	1.3743252	-0.10464691	0.32527506	1.4002634	0.2192339	0.28641425	1.437167	0.046233578	0.26320454	1.015786	-0.18672774	0.14003306	1.0930356	0.30233646	0.50238893	0.88497748	-0.1998426	0.23255258	0.84326891	0.36925195
249	0.992	0.1729509	-0.033600798	0.057431063	0.61174887	0.11485361	0.1305135	0.039802214	0.033021799	-0.0087920206	0.46442255	0.11752666	0.15109787	0.056668145	0.054287208	0.087575728	0.48275056	0.15232711	0.057862341	-0.038151048	0.01708776	0.031490132	0.402602	0.086535014	0.096988715	0.16880738	0.43008663	-0.066723319	0.55597411	0.55901867	0.19180654	0.16684977	0.43343958	0.057069728	0.54870163	0.54454023	0.067804756	0.24858749	0.84570032	-0.11748531	0.28222984	0.85336607	0.25344985	0.35059158	0.92349594	-0.06314794	0.35388114	0.93498432	0.17702174	0.18975326	0.99041044	0.061000364	0.38262007	1.3739401	-0.10481685	0.33287403	1.3997244	0.21919033	0.2934408	1.4367875	0.046366858	0.27076905	1.0148863	-0.186741	0.14664047	1.0934346	0.30297416	0.51143974	0.88658052	-0.19934459	0.23706064	0.84284631	0.36977714
